<?xml version="1.0" standalone="no"?>
<!DOCTYPE svg PUBLIC "-//W3C//DTD SVG 20010904//EN"
 "http://www.w3.org/TR/2001/REC-SVG-20010904/DTD/svg10.dtd">
<svg version="1.0" xmlns="http://www.w3.org/2000/svg"
 width="700.000000pt" height="700.000000pt" viewBox="0 0 700.000000 700.000000"
 preserveAspectRatio="xMidYMid meet">
<metadata>
Created by potrace 1.14, written by Peter Selinger 2001-2017
</metadata>
<g transform="translate(0.000000,700.000000) scale(0.100000,-0.100000)"
fill="#000000" stroke="none">
<path d="M2219 6996 c-2 -2 -31 -7 -64 -10 -87 -7 -141 -15 -220 -32 -38 -9
-81 -18 -95 -20 -100 -20 -292 -85 -435 -150 -417 -188 -792 -516 -1041 -911
-156 -247 -291 -599 -328 -858 -4 -23 -8 -52 -11 -65 -17 -89 -20 -304 -20
-1470 0 -1209 1 -1313 18 -1420 69 -439 235 -822 505 -1164 84 -106 305 -322
412 -402 285 -212 570 -348 900 -427 275 -66 263 -66 1700 -63 718 1 1316 5
1330 8 25 7 55 12 140 23 25 3 97 19 160 35 63 17 126 32 139 35 58 14 226 81
346 140 250 121 435 254 640 460 242 241 403 483 529 794 56 137 110 320 131
441 3 19 8 42 10 50 5 16 11 63 25 180 4 41 8 644 8 1340 0 1164 -1 1275 -18
1395 -19 136 -38 232 -71 350 -184 652 -639 1199 -1244 1495 -176 86 -299 131
-477 176 -289 73 -263 72 -1689 73 -702 0 -1278 -1 -1280 -3z"/>
</g>
</svg>
