<svg width="13" height="14" viewBox="0 0 13 14" fill="none" xmlns="http://www.w3.org/2000/svg">
<path fill-rule="evenodd" clip-rule="evenodd" d="M9.7799 2.9747C9.35615 2.99218 8.85446 3.00286 8.30777 2.99513C6.72337 2.97287 4.70108 2.79579 3.10833 2.13993L3.4891 1.21526C4.90166 1.79688 6.76839 1.97335 8.32178 1.99529C9.09091 2.00612 9.76852 1.97903 10.2535 1.94922C10.4958 1.93429 10.6895 1.91878 10.8218 1.90704C10.888 1.9012 10.9388 1.89629 10.9727 1.89285L11.0105 1.88897L11.0195 1.88804L11.0215 1.88778L11.6429 1.81876L11.5738 2.43986L11.5736 2.44215L11.5727 2.45113L11.5688 2.48896C11.5653 2.52286 11.5604 2.57366 11.5546 2.63981C11.5429 2.77218 11.5273 2.96583 11.5124 3.20815C11.4826 3.69311 11.4555 4.37073 11.4663 5.13985C11.4883 6.69325 11.6648 8.55999 12.2464 9.97252L11.3217 10.3533C10.6659 8.76058 10.4888 6.73826 10.4665 5.15387C10.4588 4.6072 10.4695 4.10555 10.4869 3.68188L1.53101 12.6378L0.823898 11.9307L9.7799 2.9747Z" fill="white" stroke="white"/>
</svg>
